<svg width="24" height="23" viewBox="0 0 24 23" fill="none" xmlns="http://www.w3.org/2000/svg">
<path d="M6.66667 23V17.7353H17.3333V23H6.66667ZM0 16.7482V10.7268C0 10.4416 0.0555556 10.1674 0.166667 9.90415C0.277778 9.64092 0.444444 9.42155 0.666667 9.24607L10.6667 0.493562C10.8444 0.318073 11.0502 0.191721 11.284 0.114506C11.5169 0.0381687 11.7556 0 12 0C12.2444 0 12.4836 0.0381687 12.7173 0.114506C12.9502 0.191721 13.1556 0.318073 13.3333 0.493562L16 2.82976L0 16.7482ZM2 23C1.44444 23 0.972444 22.8078 0.584 22.4235C0.194667 22.0401 0 21.5742 0 21.0258V18.525L5.33333 13.8526V23H2ZM18.6667 23V12.2074L12.9667 7.20601L17 3.68526L23.3333 9.24607C23.5556 9.44349 23.7222 9.66812 23.8333 9.91994C23.9444 10.1726 24 10.4416 24 10.7268V21.0258C24 21.5742 23.8053 22.0401 23.416 22.4235C23.0276 22.8078 22.5556 23 22 23H18.6667Z" fill="#07704A"/>
</svg>
